<svg width="17" height="18" viewBox="0 0 17 18" fill="none" xmlns="http://www.w3.org/2000/svg">
<path d="M8.50193 12.15C7.69078 12.15 6.91285 11.8181 6.33927 11.2274C5.7657 10.6366 5.44347 9.83543 5.44347 9C5.44347 8.16457 5.7657 7.36335 6.33927 6.77261C6.91285 6.18187 7.69078 5.85 8.50193 5.85C9.31308 5.85 10.091 6.18187 10.6646 6.77261C11.2382 7.36335 11.5604 8.16457 11.5604 9C11.5604 9.83543 11.2382 10.6366 10.6646 11.2274C10.091 11.8181 9.31308 12.15 8.50193 12.15ZM14.9946 9.873C15.0296 9.585 15.0558 9.297 15.0558 9C15.0558 8.703 15.0296 8.406 14.9946 8.1L16.8384 6.633C17.0044 6.498 17.0481 6.255 16.9433 6.057L15.1956 2.943C15.0907 2.745 14.8548 2.664 14.6625 2.745L12.4867 3.645C12.0323 3.294 11.5604 2.988 11.0099 2.763L10.6865 0.378C10.6516 0.162 10.4681 0 10.2496 0H6.75424C6.53578 0 6.35227 0.162 6.31732 0.378L5.99399 2.763C5.44347 2.988 4.9716 3.294 4.5172 3.645L2.34132 2.745C2.14908 2.664 1.91314 2.745 1.80828 2.943L0.0605851 6.057C-0.0530148 6.255 -0.000583991 6.498 0.165447 6.633L2.00926 8.1C1.97431 8.406 1.94809 8.703 1.94809 9C1.94809 9.297 1.97431 9.585 2.00926 9.873L0.165447 11.367C-0.000583991 11.502 -0.0530148 11.745 0.0605851 11.943L1.80828 15.057C1.91314 15.255 2.14908 15.327 2.34132 15.255L4.5172 14.346C4.9716 14.706 5.44347 15.012 5.99399 15.237L6.31732 17.622C6.35227 17.838 6.53578 18 6.75424 18H10.2496C10.4681 18 10.6516 17.838 10.6865 17.622L11.0099 15.237C11.5604 15.003 12.0323 14.706 12.4867 14.346L14.6625 15.255C14.8548 15.327 15.0907 15.255 15.1956 15.057L16.9433 11.943C17.0481 11.745 17.0044 11.502 16.8384 11.367L14.9946 9.873Z" fill="#435EBE"/>
</svg>
